<svg height="512pt" viewBox="0 -4 512 511" width="512pt" xmlns="http://www.w3.org/2000/svg"><path d="m315.453125 204.75c-15.996094 0-29.007813 13.011719-29.007813 29.003906 0 15.996094 13.011719 29.007813 29.007813 29.007813 15.992187 0 29.003906-13.011719 29.003906-29.007813 0-15.992187-13.011719-29.003906-29.003906-29.003906zm0 43c-7.71875 0-14-6.277344-14-13.996094 0-7.714844 6.28125-13.996094 14-13.996094 7.714844 0 13.996094 6.28125 13.996094 13.996094 0 7.71875-6.28125 13.996094-13.996094 13.996094zm0 0"/><path d="m228.105469 132.078125c-4.054688.847656-6.65625 4.824219-5.808594 8.878906.558594 2.675781.84375 5.433594.84375 8.195313 0 21.953125-17.863281 39.816406-39.816406 39.816406-21.957031 0-39.816407-17.863281-39.816407-39.816406s17.859376-39.816406 39.816407-39.816406c9.109375 0 17.679687 2.992187 24.785156 8.65625 3.242187 2.578124 7.964844 2.046874 10.546875-1.195313s2.046875-7.964844-1.195312-10.546875c-9.648438-7.6875-21.773438-11.921875-34.136719-11.921875-30.230469 0-54.824219 24.59375-54.824219 54.824219 0 30.230468 24.59375 54.824218 54.824219 54.824218s54.824219-24.59375 54.824219-54.824218c0-3.792969-.390626-7.582032-1.160157-11.265625-.847656-4.054688-4.824219-6.648438-8.882812-5.808594zm0 0"/><path d="m37.894531 487.996094h-30.390625c-4.144531 0-7.503906 3.359375-7.503906 7.503906s3.359375 7.503906 7.503906 7.503906h30.390625c4.144531 0 7.503907-3.359375 7.503907-7.503906s-3.359376-7.503906-7.503907-7.503906zm0 0"/><path d="m115.230469 487.996094h-30.386719c-4.144531 0-7.507812 3.359375-7.507812 7.503906s3.363281 7.503906 7.507812 7.503906h30.386719c4.144531 0 7.503906-3.359375 7.503906-7.503906s-3.359375-7.503906-7.503906-7.503906zm0 0"/><path d="m477.777344 475.726562c1.425781 1.660157 3.503906 2.613282 5.695312 2.613282h18.246094c2.628906 0 5.066406-1.375 6.425781-3.625s1.441407-5.046875.21875-7.371094l-30.492187-57.992188c-.785156-1.488281-.992188-3.207031-.589844-4.839843l13.464844-54.359375c0-.003906.003906-.007813.003906-.011719l.007812-.023437c.007813-.035157.011719-.070313.019532-.101563.039062-.175781.074218-.347656.105468-.519531.007813-.054688.011719-.109375.019532-.164063 0-.007812.003906-.011719.003906-.019531.003906-.039062.011719-.078125.015625-.117188.015625-.128906.027344-.261718.039063-.394531.003906-.050781.003906-.105469.003906-.15625.007812-.164062.015625-.324219.011718-.484375v-14.128906c0-4.144531-3.359374-7.503906-7.503906-7.503906-4.144531 0-7.503906 3.359375-7.503906 7.503906v3.097656l-32.617188-13.367187.664063-42.703125 4.277344 2.601562c3.539062 2.152344 8.15625 1.023438 10.308593-2.519531 2.152344-3.539063 1.027344-8.15625-2.515624-10.308594l-15.542969-9.445312c-.058594-.035157-.117188-.074219-.179688-.109375l-49.011719-29.78125c-7.910156-4.804688-12.828124-13.097656-13.609374-21.980469l74.824218 40.636719c.40625.242187.804688.488281 1.226563.707031l1.269531.648437 10.65625 5.789063c6.320312 3.433594 10.246094 10.035156 10.246094 17.230469v29.367187c0 4.144531 3.363281 7.503907 7.507812 7.503907 4.144532 0 7.503906-3.359376 7.503906-7.503907v-29.367187c0-8.191406-2.898437-15.941406-7.941406-22.042969 2.992188-2.074219 5.449219-4.871094 7.15625-8.203125l8.003906-15.632812c2.734376-5.335938 3.226563-11.414063 1.382813-17.121094-1.839844-5.707032-5.792969-10.355469-11.128906-13.085938l-6.1875-3.171875c-11.015625-5.640625-24.566407-1.269531-30.210938 9.746094l-8.003906 15.632813c-1.082031 2.113281-1.800781 4.339843-2.171875 6.617187l-59.355469-32.238281c1.160157-3.949219.179688-8.371094-2.902343-11.429688l-13.234376-13.242187c-4.253906-4.257813-11.164062-4.515625-15.71875-.59375l-11.277343 9.671875c-.519531-.230469-1.046875-.453125-1.578125-.667969l-.914063-14.992187c-.375-6.089844-5.449219-10.859376-11.546875-10.859376h-18.71875c-4.269531 0-8.042968 2.367188-10.046875 5.871094v-22.347656c0-6.945312-5.421875-12.796875-12.34375-13.328125l-14.746093-1.125c-1.4375-4.550781-3.238282-8.984375-5.386719-13.269531l9.953125-11.246094c4.675781-5.277344 4.429687-13.320312-.554688-18.308594l-19.085937-19.089844c-4.910157-4.90625-12.886719-5.214843-18.152344-.691406l-11.226563 9.628906c-4.238281-2.207031-8.652343-4.078124-13.191406-5.585937l-.914062-14.976563c-.425782-7.039062-6.285156-12.554687-13.339844-12.554687h-26.992188c-6.941406 0-12.796874 5.421875-13.324218 12.347656l-1.125 14.742188c-5.019532 1.582031-9.882813 3.597656-14.546875 6.027343l-11.222657-9.628906c-5.273437-4.523437-13.246093-4.21875-18.152343.691406l-19.085938 19.085938c-4.988281 4.988281-5.230469 13.03125-.558593 18.308594l9.957031 11.246094c-2.152344 4.28125-3.953125 8.71875-5.386719 13.269531l-14.75 1.125c-6.921875.53125-12.34375 6.382812-12.34375 13.328125v26.988281c0 7.054687 5.515625 12.914063 12.550781 13.34375l14.980469.910156c1.507812 4.539063 3.375 8.949219 5.585938 13.191407l-9.628907 11.226562c-4.523437 5.269531-4.21875 13.242188.691407 18.152344l19.085937 19.085937c4.984375 4.988281 13.027344 5.230469 18.308594.554688l11.246093-9.953125c4.28125 2.148437 8.71875 3.949218 13.269532 5.386718l1.113281 14.585938-38.6875 4.125c-.542969.058594-1.09375-.066406-1.5625-.34375l-37-23.710938c3.703125-3.589843 6.210937-8.445312 6.730469-13.96875l1.652344-17.488281c.5625-5.96875-1.234376-11.796875-5.054688-16.417969-3.824219-4.617187-9.214844-7.472656-15.183594-8.035156l-6.921875-.65625c-5.96875-.566406-11.800781 1.230469-16.417969 5.054688-4.621093 3.824218-7.476562 9.214844-8.039062 15.183594l-1.652344 17.484374c-.519531 5.507813.992188 10.886719 4.226563 15.316407-1.023438.863281-2.011719 1.792969-2.921875 2.824219l-3.476563 3.941406c-6.359375 7.214844-9.90625 16.484375-9.984375 26.101562l-.492187 59.234375-19.371094 150.257813c-.277344 2.140625.382813 4.296875 1.808594 5.917968 1.421875 1.617188 3.476562 2.546876 5.632812 2.546876h19.429688c3.199219 0 6.050781-2.03125 7.09375-5.054688l48.234375-139.816406 44.863281 46.671875c2.511719 2.546875 2.972656 6.457031 1.121094 9.507812-.199219.332031-.375.679688-.519531 1.035157l-29.863282 72.652343h-3.933594l13.207032-58.785156c1.375-4.0625.707031-8.503906-1.824219-12.003906-.191406-.257813-.394531-.507813-.613281-.738281l-13.835938-14.699219c-2.839844-3.015625-7.589844-3.160157-10.605468-.320313-3.019532 2.839844-3.164063 7.589844-.324219 10.609375l12.65625 13.441407-15.359375 68.355468c-.5 2.222656.039062 4.554688 1.460937 6.335938 1.425781 1.777344 3.582031 2.8125 5.859375 2.8125h18.339844c3.042969 0 5.785156-1.835938 6.941406-4.648438l31.578125-76.820312c5.03125-8.851563 3.59375-19.976563-3.53125-27.203125l-51.167969-53.230469.40625-30.4375 15.203126 8.453125c3.269531 1.816406 6.957031 2.535156 10.664062 2.074219l38.320312-4.714844c15.480469-1.902344 27.660157-13.5625 30.695313-28.339844h12.550781c7.050782 0 12.910156-5.515625 13.339844-12.554687l.910156-14.976563c4.078125-1.359375 8.058594-3.011718 11.917969-4.949218l10.851563 9.605468v4.117188c0 6.097656 4.765624 11.167968 10.859374 11.546875l14.980469.914062c.21875.527344.441407 1.054688.671875 1.578125l-9.683594 11.285156c-3.898437 4.5625-3.628906 11.457032.609376 15.695313l13.253906 13.265625c4.320312 4.292969 11.273437 4.492188 15.828125.457031l11.238281-9.945312c.527344.222656 1.058594.4375 1.59375.644531l1.128906 14.789062c.4375 6.007813 5.503906 10.710938 11.53125 10.710938h18.71875c6.097656 0 11.167969-4.765625 11.546875-10.859375l.914063-14.980469c.242187-.097656.484375-.199218.726562-.300781l11.230469 9.941406c4.554687 4.035157 11.507813 3.835938 15.855469-.476562l13.226562-13.238281c4.242188-4.242188 4.511719-11.140626.605469-15.710938l-9.675781-11.277344c.230468-.519531.457031-1.046875.671875-1.578125l14.988281-.914062c3.480469-.214844 6.523438-1.96875 8.496094-4.570313l35.210937 21.394532-.84375 54.257812-42.144531 58.589844c-3.300781 4.585937-4.800781 10.21875-4.222656 15.875l7.355468 70.863281c.398438 3.824219 3.621094 6.730469 7.464844 6.730469h17.207032c3.914062 0 7.175781-3.011719 7.480468-6.917969l4.453125-56.601563c.050781-.632812.179688-1.246093.371094-1.835937 1.003906 2.980469 2.574219 5.773437 4.675781 8.214844zm-20.832032-242.5625c-.609374-1.890624-.445312-3.90625.460938-5.675781l8.003906-15.628906c1.871094-3.648437 6.359375-5.097656 10.007813-3.230469l6.1875 3.167969c1.769531.90625 3.078125 2.445313 3.6875 4.335937.609375 1.890626.449219 3.90625-.457031 5.671876l-8.003907 15.632812c-.90625 1.769531-2.445312 3.078125-4.335937 3.6875-1.894532.609375-3.90625.449219-5.675782-.457031l-4.730468-2.421875-2.242188-1.21875c-1.367187-.925782-2.386718-2.265625-2.902344-3.863282zm-162.367187-62.722656-.609375 7.976563c-.828125.320312-1.648438.660156-2.457031 1.015625l-3.941407-3.382813c2.9375-1.015625 5.402344-3.019531 7.007813-5.609375zm-244.503906 42.101563 1.652343-17.484375c.1875-1.976563 1.132813-3.765625 2.660157-5.03125 1.347656-1.113282 3.003906-1.707032 4.730469-1.707032.234374 0 .472656.011719.710937.035157l6.921875.652343c1.976562.1875 3.765625 1.132813 5.03125 2.664063 1.265625 1.527344 1.859375 3.460937 1.675781 5.4375l-1.652343 17.488281c-.351563 3.730469-3.421876 6.558594-7.066407 6.722656-3.265625-1.03125-6.648437-1.398437-9.976562-1.160156-3.007813-1.183594-5.003907-4.246094-4.6875-7.617187zm-25.441407 249.722656h-5.546874l17.507812-135.78125 35.042969-.472656zm127.886719-186.410156-38.324219 4.714843c-.53125.066407-1.0625-.035156-1.535156-.296874l-26.066406-14.492188c-.082031-.046875-.164062-.09375-.246094-.136719l-17.691406-9.835937c-3.625-2.019532-8.191406-.710938-10.207031 2.910156-2.011719 3.621094-.707031 8.191406 2.914062 10.207031l13.902344 7.730469-.457031 34.296875-37.257813.503906.433594-52.015625c.046875-6.007812 2.261719-11.796875 6.234375-16.300781l3.476562-3.941406c1.742188-1.980469 3.988282-3.257813 6.382813-3.796875.429687.066406.855469.144531 1.292969.1875l6.28125.59375c.527344.238281 1.046875.519531 1.550781.84375l45.785156 29.339844c.035157.023437.066407.042968.101563.066406 3.292968 2.03125 7.226562 2.925781 11.082031 2.519531l48.765625-5.195313c-2.910156 6.4375-9.019531 11.1875-16.417969 12.097657zm68.527344-61.507813c-5.765625 3.34375-11.921875 5.898438-18.300781 7.597656-3.125.832032-5.367188 3.570313-5.5625 6.796876l-1.132813 18.660156h-23.921875l-1.410156-18.449219c-.246094-3.226563-2.53125-5.929687-5.667969-6.710937-6.796875-1.695313-13.339843-4.351563-19.453125-7.894532-2.796875-1.625-6.316406-1.273437-8.738281.871094l-14.011719 12.40625-16.914062-16.914062 12.050781-14.046876c2.109375-2.453124 2.402344-5.984374.738281-8.753906-3.625-6.027344-6.382812-12.535156-8.191406-19.335937-.832031-3.125-3.570312-5.367188-6.796875-5.5625l-18.660156-1.136719v-23.917969l18.449219-1.410156c3.226562-.246094 5.929687-2.53125 6.710937-5.667969 1.691406-6.792968 4.347656-13.339844 7.894531-19.453125 1.621094-2.796875 1.273438-6.316406-.871094-8.738281l-12.40625-14.011719 16.914063-16.914062 14.046875 12.050781c2.453125 2.109375 5.980469 2.40625 8.753906.738281 6.375-3.832031 13.265625-6.6875 20.484375-8.488281 3.140625-.78125 5.421875-3.484375 5.667969-6.710938l1.410156-18.449218h23.921875l1.132813 18.660156c.195312 3.226562 2.4375 5.964844 5.5625 6.796875 6.804687 1.8125 13.308594 4.566406 19.339844 8.191406 2.769531 1.667969 6.296874 1.371094 8.753906-.734375l14.042968-12.050781 16.914063 16.910156-12.402344 14.011719c-2.144531 2.421875-2.496093 5.941406-.875 8.738281 3.546875 6.117188 6.203125 12.660157 7.894531 19.453125.78125 3.140625 3.488282 5.425782 6.710938 5.671875l18.453125 1.40625v23.917969l-18.660156 1.136719c-3.230469.195312-5.964844 2.4375-6.796875 5.5625-1.8125 6.804687-4.566406 13.308593-8.191406 19.335937-1.667969 2.773438-1.371094 6.300782.734374 8.753906l12.050782 14.046876-16.914063 16.914062-14.011719-12.40625c-2.421874-2.144531-5.945312-2.496094-8.742187-.871094zm143.546875 27.085938c-3.121094.191406-5.800781 2.300781-6.71875 5.289062-.898438 2.9375-2.109375 5.78125-3.585938 8.453125-1.523437 2.746094-1.175781 6.144531.867188 8.527344l10.824219 12.613281-8.6875 8.695313-12.523438-11.085938c-2.351562-2.082031-5.75-2.480469-8.515625-.996093-2.46875 1.316406-5.105468 2.414062-7.835937 3.25-2.988281.917968-5.097657 3.59375-5.289063 6.71875l-1.019531 16.6875h-12.285156l-1.269531-16.589844c-.238282-3.125-2.398438-5.773438-5.410157-6.640625-2.976562-.855469-5.835937-2.007813-8.496093-3.429688-2.765626-1.476562-6.164063-1.078125-8.511719 1l-12.527344 11.085938-8.6875-8.695313 10.828125-12.613281c2.042969-2.382813 2.386719-5.78125.867188-8.527344-1.480469-2.671875-2.6875-5.515625-3.585938-8.449219-.917969-2.992187-3.597656-5.101562-6.71875-5.292968l-14.425781-.878906c.496093-.375.980469-.773438 1.429687-1.222657 0 0 22.890625-26.234375 22.988282-26.417969 1.453124-2.761718 1.046874-6.136718-1.019532-8.472656l-5.460937-6.167968-.058594-.070313c-.039063-.042969-.078125-.089844-.117187-.132813l-.128907-.144531-5.234375-6.101562 8.59375-8.601563 12.617188 10.832032c2.382812 2.046874 5.785156 2.394531 8.53125.867187 2.839844-1.578125 5.910156-2.847656 9.125-3.773437 3.007812-.871094 5.164062-3.515626 5.402344-6.640626l1.269531-16.585937h12.285156l1.019531 16.695313c.191406 3.125 2.296875 5.800781 5.289063 6.71875 2.9375.902343 5.78125 2.109374 8.453125 3.589843 2.746094 1.519531 6.144531 1.175781 8.523437-.871093l12.628907-10.832032 8.566406 8.574219c-.777344.65625-1.421875 1.460937-1.878906 2.378906l-9.089844 10.265625c-2.082032 2.351563-2.480469 5.742188-1 8.511719 1.417968 2.65625 2.578125 5.519531 3.445312 8.519531.875 3.003906 3.515625 5.148438 6.632813 5.390625l2.828125.214844c2.640625 5.125 6.292968 9.742187 10.824218 13.519531zm124.703125 221.898437h-2.378906l-44.59375-51.914062c-1.617188-1.882813-2.449219-4.285157-2.339844-6.765625l2.816406-64.898438 31.828125 13.046875-11.914062 48.101563c-1.289063 5.203125-.625 10.6875 1.871094 15.433594zm-71.015625-64.84375c-4.265625 3.9375-6.875 9.304688-7.351562 15.136719l-3.910157 49.707031h-3.5l-6.65625-64.121093c-.203125-1.988282.320313-3.96875 1.476563-5.574219l28.835937-40.089844-1.660156 38.246094zm0 0"/><path d="m504.496094 487.996094h-30.390625c-4.144531 0-7.503907 3.359375-7.503907 7.503906s3.359376 7.503906 7.503907 7.503906h30.390625c4.144531 0 7.503906-3.359375 7.503906-7.503906s-3.359375-7.503906-7.503906-7.503906zm0 0"/><path d="m415.097656 487.996094h-30.390625c-4.144531 0-7.503906 3.359375-7.503906 7.503906s3.359375 7.503906 7.503906 7.503906h30.390625c4.144532 0 7.503906-3.359375 7.503906-7.503906s-3.359374-7.503906-7.503906-7.503906zm0 0"/><path d="m328.125 132.78125c27.039062 0 51.917969 12.242188 68.304688 32.816406l-5.597657-1.359375c-4.03125-.972656-8.085937 1.5-9.0625 5.527344-.976562 4.027344 1.496094 8.082031 5.523438 9.0625l23.300781 5.648437c3.757812 1.175782 8.503906-.628906 9.65625-5.382812l5.359375-22.109375c.976563-4.027344-1.496094-8.082031-5.523437-9.0625-4.03125-.972656-8.085938 1.496094-9.0625 5.527344l-1.195313 4.929687c-19.152344-25.40625-49.085937-40.605468-81.703125-40.605468-4.144531 0-7.503906 3.359374-7.503906 7.503906 0 4.144531 3.359375 7.503906 7.503906 7.503906zm0 0"/><path d="m38.046875 93.582031c.621094 4.390625 6.085937 7.503907 10.183594 6.007813l24.734375-9.035156c3.894531-1.421876 5.898437-5.730469 4.476562-9.621094-1.425781-3.894532-5.734375-5.898438-9.625-4.476563l-7.339844 2.679688c22.90625-39.152344 64.8125-63.628907 111.160157-63.628907 4.144531 0 7.503906-3.359374 7.503906-7.503906 0-4.144531-3.359375-7.503906-7.503906-7.503906-52.394531 0-99.703125 28.019531-125.054688 72.699219l-2.910156-7.96875c-1.421875-3.890625-5.734375-5.890625-9.621094-4.472657-3.894531 1.421876-5.898437 5.730469-4.476562 9.625zm0 0"/></svg>