<svg xmlns="http://www.w3.org/2000/svg" xmlns:xlink="http://www.w3.org/1999/xlink" width="90" height="90" viewBox="0 0 90 90">
  <defs>
    <clipPath id="clip-path">
      <rect id="Rectangle_23" data-name="Rectangle 23" width="90" height="90" transform="translate(238 1003)" fill="#f0f0f0"/>
    </clipPath>
  </defs>
  <g id="web_design_icn" transform="translate(-238 -1003)" clip-path="url(#clip-path)">
    <g id="web-design" transform="translate(238 1003)">
      <g id="Group_79" data-name="Group 79">
        <g id="Group_78" data-name="Group 78">
          <path id="Path_161" data-name="Path 161" d="M0,74.032A7.266,7.266,0,0,0,7.258,81.29H29.032V87.1H23.226V90H66.774V87.1H60.968V81.29H82.742A7.266,7.266,0,0,0,90,74.032V69.677H0ZM58.065,87.1H31.935V81.29H58.065ZM2.9,72.581H87.1v1.452a4.36,4.36,0,0,1-4.355,4.355H7.258A4.36,4.36,0,0,1,2.9,74.032Z" fill="#006db6"/>
          <path id="Path_162" data-name="Path 162" d="M82.742,13.065H78.387v2.9h4.355A4.36,4.36,0,0,1,87.1,20.323V66.774H90V20.323A7.266,7.266,0,0,0,82.742,13.065Z" fill="#006db6"/>
          <path id="Path_163" data-name="Path 163" d="M2.9,20.323a4.36,4.36,0,0,1,4.355-4.355h4.355v-2.9H7.258A7.266,7.266,0,0,0,0,20.323V66.774H2.9Z" fill="#006db6"/>
          <path id="Path_164" data-name="Path 164" d="M75.484,0H14.516V66.774H75.484Zm-2.9,63.871H17.419V2.9H72.581Z" fill="#006db6"/>
          <path id="Path_165" data-name="Path 165" d="M23.226,8.71H69.677v-2.9H20.323V26.129h2.9Z" fill="#006db6"/>
          <path id="Path_166" data-name="Path 166" d="M69.677,11.613h-2.9V29.032H20.323v2.9H69.677Z" fill="#006db6"/>
          <path id="Path_167" data-name="Path 167" d="M52.258,14.516a7.822,7.822,0,0,1,6.027,2.823l4.47,5.364,2.231-1.858-4.47-5.364a10.749,10.749,0,0,0-16.516,0l-1.305,1.568a11.936,11.936,0,0,0-13.413,2.423L25.1,23.651,27.155,25.7l4.179-4.179a9.063,9.063,0,0,1,12.815,0L48.329,25.7l2.053-2.053L46.2,19.472a12.13,12.13,0,0,0-1.006-.891L46.23,17.34A7.827,7.827,0,0,1,52.258,14.516Z" fill="#006db6"/>
          <path id="Path_168" data-name="Path 168" d="M43.548,34.839H20.323V60.968H43.548Zm-2.9,23.226H23.226V37.742H40.645Z" fill="#006db6"/>
          <rect id="Rectangle_30" data-name="Rectangle 30" width="2.903" height="2.903" transform="translate(46.452 34.839)" fill="#006db6"/>
          <rect id="Rectangle_31" data-name="Rectangle 31" width="17.419" height="2.903" transform="translate(52.258 34.839)" fill="#006db6"/>
          <rect id="Rectangle_32" data-name="Rectangle 32" width="2.903" height="2.903" transform="translate(66.774 58.065)" fill="#006db6"/>
          <rect id="Rectangle_33" data-name="Rectangle 33" width="17.419" height="2.903" transform="translate(46.452 58.065)" fill="#006db6"/>
          <rect id="Rectangle_34" data-name="Rectangle 34" width="23.226" height="2.903" transform="translate(46.452 52.258)" fill="#006db6"/>
          <rect id="Rectangle_35" data-name="Rectangle 35" width="23.226" height="2.903" transform="translate(46.452 46.452)" fill="#006db6"/>
          <rect id="Rectangle_36" data-name="Rectangle 36" width="23.226" height="2.903" transform="translate(46.452 40.645)" fill="#006db6"/>
        </g>
      </g>
    </g>
  </g>
</svg>
